<?xml version="1.0" encoding="UTF-8"?>
<svg xmlns="http://www.w3.org/2000/svg" xmlns:xlink="http://www.w3.org/1999/xlink" width="720pt" height="200.07pt" viewBox="0 0 720 200.07" version="1.1">
<defs>
<clipPath id="clip1">
  <path d="M 0 0 L 201 0 L 201 200.070313 L 0 200.070313 Z M 0 0 "/>
</clipPath>
</defs>
<g id="surface1">
<path style=" stroke:none;fill-rule:nonzero;fill:rgb(0%,0%,0%);fill-opacity:1;" d="M 23.179688 71.054688 L 62.214844 153.796875 L 79.554688 153.796875 L 86.375 140.976563 L 53.386719 71.054688 "/>
<path style=" stroke:none;fill-rule:nonzero;fill:rgb(0%,0%,0%);fill-opacity:1;" d="M 128.371094 110.945313 L 109.449219 71.054688 L 90.65625 71.054688 L 76.660156 101.3125 L 91.140625 132.011719 L 101.175781 113.164063 L 119.917969 153.796875 L 137.890625 153.796875 L 177.160156 71.199219 L 147.570313 71.054688 "/>
<g clip-path="url(#clip1)" clip-rule="nonzero">
<path style=" stroke:none;fill-rule:evenodd;fill:rgb(0%,0%,0%);fill-opacity:1;" d="M 100.269531 13.058594 C 51.3125 13.058594 13.257813 49.117188 13.257813 100.789063 C 13.257813 149.011719 46.453125 188.453125 100.269531 188.453125 C 148.621094 188.453125 186.679688 152.71875 186.679688 100.789063 C 186.679688 49.117188 148.621094 13.058594 100.269531 13.058594 M 100.507813 200.070313 C 41.773438 200.070313 0 157.011719 0 100.050781 C 0 39.84375 46.425781 -0.00390625 100.507813 -0.00390625 C 154.046875 -0.00390625 200.503906 39.84375 200.503906 100.050781 C 200.503906 160.199219 154.046875 200.070313 100.507813 200.070313 "/>
</g>
<path style=" stroke:none;fill-rule:nonzero;fill:rgb(0%,0%,0%);fill-opacity:1;" d="M 335.324219 22.132813 L 319.191406 58.25 L 301.65625 22.132813 L 283.421875 22.132813 L 265.886719 58.25 L 251.160156 22.132813 L 219.59375 22.132813 L 252.5625 97.042969 L 270.796875 97.042969 L 290.433594 60.257813 L 308.671875 97.042969 L 328.308594 97.042969 L 359.453125 22.269531 "/>
<path style=" stroke:none;fill-rule:nonzero;fill:rgb(0%,0%,0%);fill-opacity:1;" d="M 367.019531 22.269531 L 358.261719 43.296875 L 370.394531 67.617188 L 348.132813 67.617188 L 340.617188 85.675781 L 377.746094 85.675781 L 382.433594 97.042969 L 409.859375 97.042969 L 375.746094 22.269531 "/>
<path style=" stroke:none;fill-rule:nonzero;fill:rgb(0%,0%,0%);fill-opacity:1;" d="M 404.109375 58.25 C 404.109375 73.773438 416.550781 97.042969 444.90625 97.042969 C 454.273438 97.042969 463.367188 95.039063 470.324219 91.03125 L 470.324219 70.292969 C 462.703125 74.570313 458.558594 74.671875 451.730469 74.671875 C 439.828125 74.671875 432.203125 68.636719 432.203125 58.472656 C 432.203125 48.171875 438.355469 40.863281 450.261719 40.863281 C 457.214844 40.863281 464.171875 43.941406 470.996094 48.21875 L 471.257813 25.878906 C 464.707031 22.9375 456.683594 21.332031 447.71875 21.332031 C 422.839844 21.332031 404.109375 38.453125 404.109375 58.25 "/>
<path style=" stroke:none;fill-rule:nonzero;fill:rgb(0%,0%,0%);fill-opacity:1;" d="M 570.699219 97.042969 L 629.082031 97.042969 L 629.082031 79.652344 L 597.753906 79.652344 L 597.753906 67.617188 L 625.527344 67.617188 L 625.527344 51.5625 L 597.753906 51.5625 L 597.753906 38.855469 L 629.082031 38.855469 L 629.082031 22.132813 L 570.84375 22.132813 "/>
<path style=" stroke:none;fill-rule:nonzero;fill:rgb(0%,0%,0%);fill-opacity:1;" d="M 536.820313 22.132813 L 506.132813 54.632813 L 506.132813 22.132813 L 479.21875 22.132813 L 479.074219 97.042969 L 506.132813 97.042969 L 506.132813 62.582031 L 534.007813 96.375 L 565.667969 96.375 L 532.601563 56.914063 L 565.667969 22.132813 "/>
<path style=" stroke:none;fill-rule:nonzero;fill:rgb(0%,0%,0%);fill-opacity:1;" d="M 695.574219 62.933594 C 708.621094 59.457031 710.289063 51.429688 710.289063 44.207031 C 710.289063 33.636719 706.402344 22.132813 678.367188 22.132813 L 638.265625 22.132813 L 638.265625 38.855469 L 677.542969 38.855469 C 681.148438 38.855469 684.613281 40.863281 684.613281 44.878906 C 684.613281 49.824219 681.148438 50.894531 677.542969 50.894531 L 638.210938 50.894531 L 638.125 97.042969 L 665.1875 97.042969 L 665.1875 67.617188 L 671.40625 67.617188 L 691.554688 96.375 L 720 96.375 C 720 96.375 698.632813 67.351563 695.574219 62.933594 "/>
<path style=" stroke:none;fill-rule:nonzero;fill:rgb(0%,0%,0%);fill-opacity:1;" d="M 326.226563 184.035156 L 384.714844 184.035156 L 384.714844 166.609375 L 353.332031 166.609375 L 353.332031 154.554688 L 381.144531 154.554688 L 381.144531 138.476563 L 353.332031 138.476563 L 353.332031 125.738281 L 384.714844 125.738281 L 384.714844 108.992188 L 326.371094 108.992188 "/>
<path style=" stroke:none;fill-rule:nonzero;fill:rgb(0%,0%,0%);fill-opacity:1;" d="M 232.90625 108.992188 L 232.90625 184.035156 L 256.808594 184.035156 L 256.808594 145.953125 L 292.226563 184.035156 L 313.476563 184.035156 L 313.476563 108.992188 L 289.863281 108.992188 L 289.863281 146.542969 L 254.085938 108.992188 "/>
<path style=" stroke:none;fill-rule:nonzero;fill:rgb(0%,0%,0%);fill-opacity:1;" d="M 637.800781 108.992188 L 637.800781 184.035156 L 661.699219 184.035156 L 661.699219 145.953125 L 697.117188 184.035156 L 718.363281 184.035156 L 718.363281 108.992188 L 694.753906 108.992188 L 694.753906 146.542969 L 658.976563 108.992188 "/>
<path style=" stroke:none;fill-rule:nonzero;fill:rgb(0%,0%,0%);fill-opacity:1;" d="M 395.515625 108.992188 L 395.515625 156.285156 C 395.515625 156.285156 396.101563 186.382813 432.992188 186.382813 C 469.878906 186.382813 469.878906 156.285156 469.878906 156.285156 L 469.878906 108.992188 L 446.863281 108.992188 L 446.570313 151.855469 C 446.570313 151.855469 444.796875 165.136719 432.992188 165.136719 C 421.1875 165.136719 419.414063 151.5625 419.414063 151.5625 L 419.414063 108.992188 "/>
<path style=" stroke:none;fill-rule:nonzero;fill:rgb(0%,0%,0%);fill-opacity:1;" d="M 537.464844 108.992188 L 537.464844 125.296875 L 511.789063 125.296875 C 511.789063 125.296875 505.148438 125.59375 505.148438 130.757813 C 505.148438 132.425781 506.550781 133.953125 508.441406 135.257813 C 512.414063 138 530.085938 144.773438 530.085938 144.773438 C 530.085938 144.773438 542.480469 149.789063 542.480469 161.742188 C 542.480469 173.695313 535.027344 184.035156 517.835938 184.035156 L 477.996094 184.035156 L 477.996094 165.730469 L 511.191406 165.730469 C 511.191406 165.730469 516.953125 165.875 516.953125 161.742188 C 516.953125 161.742188 517.835938 159.382813 513.703125 157.460938 L 493.933594 148.90625 C 493.933594 148.90625 479.472656 143.742188 479.472656 130.316406 C 479.472656 130.316406 479.546875 108.992188 500.792969 108.992188 "/>
<path style=" stroke:none;fill-rule:evenodd;fill:rgb(0%,0%,0%);fill-opacity:1;" d="M 588.632813 128.246094 C 579.933594 128.246094 573.175781 135.566406 573.175781 146.046875 C 573.175781 155.832031 579.070313 163.835938 588.632813 163.835938 C 597.222656 163.835938 603.984375 156.582031 603.984375 146.046875 C 603.984375 135.566406 597.222656 128.246094 588.632813 128.246094 M 588.59375 184.929688 C 565.0625 184.929688 548.324219 168.144531 548.324219 145.949219 C 548.324219 122.488281 566.925781 106.960938 588.59375 106.960938 C 610.035156 106.960938 628.648438 122.488281 628.648438 145.949219 C 628.648438 169.390625 610.035156 184.929688 588.59375 184.929688 "/>
</g>
</svg>
